HIERARCHY
ROOT Hips
{
	OFFSET	0.00	0.00	0.00
	CHANNELS 6 Xposition Yposition Zposition Zrotation Xrotation Yrotation
	JOINT LeftUpLeg
	{
		OFFSET	 0.126116	-0.014019	-0.065224
		CHANNELS 3 Zrotation Xrotation Yrotation
		JOINT LeftLeg
		{
			OFFSET	 0.000000	 0.000000	 0.569914
			CHANNELS 3 Zrotation Xrotation Yrotation
			JOINT LeftFoot
			{
				OFFSET	 0.000000	 0.000000	 0.544423
				CHANNELS 3 Zrotation Xrotation Yrotation
				JOINT LeftToeBase
				{
					OFFSET	 0.000000	 0.000000	 0.207117
					CHANNELS 3 Zrotation Xrotation Yrotation
					End Site
					{
						OFFSET	 0.000000	 0.000000	 0.207117
					}
				}
			}
		}
	}
	JOINT RightUpLeg
	{
		OFFSET	-0.124023	-0.008373	-0.065224
		CHANNELS 3 Zrotation Xrotation Yrotation
		JOINT RightLeg
		{
			OFFSET	 0.000000	 0.000000	 0.570047
			CHANNELS 3 Zrotation Xrotation Yrotation
			JOINT RightFoot
			{
				OFFSET	 0.000000	 0.000000	 0.544354
				CHANNELS 3 Zrotation Xrotation Yrotation
				JOINT RightToeBase
				{
					OFFSET	 0.000000	 0.000000	 0.207540
					CHANNELS 3 Zrotation Xrotation Yrotation
					End Site
					{
						OFFSET	 0.000000	 0.000000	 0.207540
					}
				}
			}
		}
	}
	JOINT Spine
	{
		OFFSET	 0.000184	-0.007763	 0.117403
		CHANNELS 3 Zrotation Xrotation Yrotation
		JOINT Spine1
		{
			OFFSET	 0.000000	 0.000000	 0.137269
			CHANNELS 3 Zrotation Xrotation Yrotation
			JOINT Spine2
			{
				OFFSET	 0.000000	 0.000000	 0.156879
				CHANNELS 3 Zrotation Xrotation Yrotation
				JOINT LeftShoulder
				{
					OFFSET	 0.080501	-0.002496	 0.160144
					CHANNELS 3 Zrotation Xrotation Yrotation
					JOINT LeftArm
					{
						OFFSET	 0.000000	 0.000000	 0.164363
						CHANNELS 3 Zrotation Xrotation Yrotation
						JOINT LeftForeArm
						{
							OFFSET	 0.000000	 0.000000	 0.364576
							CHANNELS 3 Zrotation Xrotation Yrotation
							JOINT LeftHand
							{
								OFFSET	 0.000000	 0.000000	 0.360812
								CHANNELS 3 Zrotation Xrotation Yrotation
								JOINT LeftHandIndex1
								{
									OFFSET	 0.000000	 0.000000	 0.086006
									CHANNELS 3 Zrotation Xrotation Yrotation
									JOINT LeftHandIndex2
									{
										OFFSET	 0.000000	 0.000000	 0.047236
										CHANNELS 3 Zrotation Xrotation Yrotation
										JOINT LeftHandIndex3
										{
											OFFSET	-0.004284	-0.000551	 0.038166
											CHANNELS 3 Zrotation Xrotation Yrotation
											End Site
											{
												OFFSET	-0.004284	-0.000551	 0.038166
											}
										}
									}
								}
							}
						}
					}
				}
				JOINT Neck
				{
					OFFSET	 0.000000	 0.000000	 0.176489
					CHANNELS 3 Zrotation Xrotation Yrotation
					JOINT Head
					{
						OFFSET	 0.000000	-0.001747	 0.077940
						CHANNELS 3 Zrotation Xrotation Yrotation
						End Site
						{
							OFFSET	 0.000000	-0.001747	 0.077940
						}
					}
				}
				JOINT RightShoulder
				{
					OFFSET	-0.080363	 0.000306	 0.159706
					CHANNELS 3 Zrotation Xrotation Yrotation
					JOINT RightArm
					{
						OFFSET	 0.000000	 0.000000	 0.164196
						CHANNELS 3 Zrotation Xrotation Yrotation
						JOINT RightForeArm
						{
							OFFSET	 0.000000	 0.000000	 0.365611
							CHANNELS 3 Zrotation Xrotation Yrotation
							JOINT RightHand
							{
								OFFSET	 0.000000	 0.000000	 0.360648
								CHANNELS 3 Zrotation Xrotation Yrotation
								JOINT RightHandIndex1
								{
									OFFSET	 0.000000	 0.000000	 0.069977
									CHANNELS 3 Zrotation Xrotation Yrotation
									JOINT RightHandIndex2
									{
										OFFSET	 0.000000	 0.000000	 0.052305
										CHANNELS 3 Zrotation Xrotation Yrotation
										JOINT RightHandIndex3
										{
											OFFSET	 0.009002	-0.000782	 0.042196
											CHANNELS 3 Zrotation Xrotation Yrotation
											End Site
											{
												OFFSET	 0.009002	-0.000782	 0.042196
											}
										}
									}
								}
							}
						}
					}
				}
			}
		}
	}
}
MOTION
Frames:    10
Frame Time: 0.03333334
 6.487951	 3.099251	 0.018195	 162.129500	-2.308841	-1.135377	 7.251824	 20.064200	-176.768800	-3.578346	-11.633100	 1.467643	 3.491905	 84.297720	-0.172951	-2.306999	 39.191650	-0.254168	 4.865637	-35.611000	-177.949900	 1.519298	-44.181680	 5.429238	 103.144300	 89.860120	-97.234760	 2.372310	 30.849900	 0.054174	-2.151610	 3.539304	 2.364424	-3.076647	-1.432326	 0.684906	-3.504820	-3.865241	-0.856383	-91.776180	 78.527400	-180.000000	 35.599580	 60.591050	-53.625280	-8.961474	-4.960373	-35.710380	 3.869363	-2.094663	-5.369022	-3.812334	 37.924440	-2.927599	-2.450526	 36.184240	 0.754587	-1.378229	 35.397820	-2.634230	 1.215528	 2.151305	-4.950364	 0.421676	-9.186758	 3.271076	 89.782120	 78.203870	 180.000000	-38.080650	 71.951970	 35.580890	 0.081904	-6.838351	 22.247280	-13.487460	-3.249961	 9.563020	 6.437017	 35.671460	-0.771858	 2.830251	 35.756010	-7.813440	-2.350882	 35.473990	 5.254307
 6.496199	 3.122400	 0.017346	 162.345500	-2.101068	-1.235431	 7.338054	 21.041490	-176.905000	-3.533085	-11.629630	 1.495430	 3.794782	 84.428450	-0.354623	-2.293927	 40.360830	-0.285338	 5.215169	-35.876340	-177.628800	 0.461623	-41.367080	 4.544042	 130.667500	 89.728760	-125.112700	 2.368224	 31.551270	 0.069989	-2.191094	 3.395844	 2.300536	-3.104119	-1.504770	 0.653358	-3.519735	-3.927501	-0.874374	-91.776180	 78.527400	-180.000000	 35.862600	 60.507580	-54.113720	-9.024809	-4.960306	-36.282270	 3.777394	-2.118756	-5.364600	-3.812334	 37.924440	-2.927599	-2.450526	 36.184240	 0.754587	-1.378229	 35.397820	-2.634230	 1.225707	 2.177833	-4.964880	 0.439992	-9.299054	 3.495217	 89.782120	 78.203930	 180.000000	-37.501090	 72.317720	 34.894370	 0.212309	-6.787997	 21.780530	-13.671230	-3.256599	 9.558381	 6.437017	 35.671460	-0.771858	 2.830251	 35.756010	-7.813440	-2.350882	 35.473990	 5.254307
 6.505474	 3.148186	 0.016366	 162.595700	-1.958099	-1.296235	 7.425409	 22.181060	-177.096400	-3.434623	-11.625060	 1.530379	 4.150175	 84.405290	-0.545229	-2.275095	 41.895490	-0.327669	 5.245490	-36.058910	-177.515900	-0.110384	-39.195920	 3.925914	 149.834500	 89.501500	-144.554400	 2.363368	 32.333930	 0.087841	-2.256472	 3.294580	 2.178251	-3.144449	-1.573972	 0.596897	-3.524702	-3.996648	-0.901769	-91.776180	 78.527400	-180.000000	 36.299900	 60.560700	-54.671180	-9.068932	-4.973680	-36.645160	 3.742651	-2.115946	-5.365228	-3.812334	 37.924440	-2.927599	-2.450526	 36.184240	 0.754587	-1.378229	 35.397820	-2.634230	 1.226893	 2.146902	-4.990766	 0.459590	-9.354963	 3.776180	 89.782070	 78.203930	-180.000000	-36.840030	 72.680390	 34.141840	 0.294877	-6.736904	 21.236150	-13.915530	-3.264535	 9.552620	 6.437017	 35.671460	-0.771858	 2.830251	 35.756010	-7.813440	-2.350882	 35.473990	 5.254307
 6.514228	 3.172432	 0.015484	 162.836600	-1.912416	-1.319756	 7.547220	 23.259530	-177.405800	-3.258409	-11.619150	 1.575126	 4.526591	 84.189510	-0.697100	-2.253204	 43.502640	-0.373868	 5.136130	-36.064730	-177.408200	-0.225117	-38.095930	 3.669564	 153.087600	 89.367580	-147.906400	 2.360538	 32.767350	 0.097832	-2.329005	 3.239784	 2.054522	-3.183425	-1.622765	 0.524718	-3.515259	-4.039626	-0.931848	-91.776180	 78.527400	-180.000000	 36.740040	 60.745890	-55.029400	-9.101284	-4.989072	-36.739410	 3.753563	-2.115319	-5.365305	-3.812334	 37.924440	-2.927599	-2.450526	 36.184240	 0.754587	-1.378229	 35.397820	-2.634230	 1.236262	 2.098501	-5.014839	 0.481195	-9.373204	 4.019691	 89.782090	 78.203830	-180.000000	-36.266720	 72.972670	 33.503700	 0.328492	-6.686223	 20.725390	-14.149400	-3.272305	 9.546932	 6.437017	 35.671460	-0.771858	 2.830251	 35.756010	-7.813440	-2.350882	 35.473990	 5.254307
 6.525116	 3.201505	 0.014475	 163.118100	-1.958030	-1.323409	 7.732003	 24.546880	-177.901700	-2.934291	-11.609520	 1.645439	 4.992896	 83.602140	-0.792103	-2.228460	 45.135740	-0.423014	 4.952180	-35.841560	-177.435700	 0.070811	-37.757720	 3.728334	 151.084100	 89.399310	-145.761100	 2.361741	 32.583780	 0.093589	-2.407069	 3.191539	 1.938211	-3.222106	-1.657998	 0.423368	-3.485132	-4.043126	-0.968497	-91.776180	 78.527420	-180.000000	 37.414130	 61.053920	-55.508120	-9.127810	-4.990203	-36.609200	 3.775657	-2.115959	-5.365130	-3.812334	 37.924440	-2.927599	-2.450526	 36.184240	 0.754587	-1.378229	 35.397820	-2.634230	 1.265647	 2.074661	-5.033637	 0.520242	-9.391035	 4.259984	 89.782120	 78.203930	 180.000000	-35.707150	 73.258780	 32.887430	 0.312415	-6.622201	 20.133490	-14.421220	-3.281753	 9.539743	 6.437017	 35.671460	-0.771858	 2.830251	 35.756010	-7.813440	-2.350882	 35.473990	 5.254307
 6.535435	 3.227976	 0.013518	 163.366800	-2.012736	-1.323960	 7.927200	 25.709510	-178.439000	-2.553994	-11.598590	 1.721354	 5.398796	 82.760640	-0.781396	-2.208576	 46.331860	-0.460589	 4.876307	-35.563000	-177.526000	 0.492443	-38.050380	 3.996199	 138.301100	 89.604850	-132.698900	 2.366508	 31.835550	 0.076440	-2.473668	 3.148528	 1.885045	-3.252814	-1.667611	 0.323975	-3.442005	-3.989885	-1.003021	-91.776180	 78.527400	-180.000000	 38.106270	 61.403520	-55.844270	-9.139452	-4.962854	-36.314910	 3.776453	-2.118145	-5.364729	-3.812334	 37.924440	-2.927599	-2.450526	 36.184240	 0.754587	-1.378229	 35.397820	-2.634230	 1.311922	 2.127253	-5.060378	 0.564639	-9.432504	 4.459188	 89.782120	 78.203870	 180.000000	-35.341920	 73.463460	 32.487340	 0.249117	-6.562336	 19.623330	-14.656080	-3.290495	 9.532940	 6.437017	 35.671460	-0.771858	 2.830251	 35.756010	-7.813440	-2.350882	 35.473990	 5.254307
 6.546706	 3.256427	 0.012586	 163.630000	-2.079296	-1.308600	 8.158722	 26.921710	-179.085000	-2.133951	-11.586860	 1.799680	 5.720418	 81.526460	-0.646462	-2.184930	 47.642910	-0.503460	 4.840047	-34.963910	-177.638500	 0.988535	-38.792070	 4.401483	 81.003780	 89.763440	-75.063800	 2.373311	 30.669990	 0.050145	-2.551192	 3.082664	 1.857886	-3.289046	-1.667383	 0.208810	-3.379883	-3.889462	-1.047423	-91.776180	 78.527400	-180.000000	 38.880600	 61.846160	-56.057930	-9.136306	-4.913709	-35.826020	 3.771720	-2.094244	-5.369164	-3.812334	 37.924440	-2.927599	-2.450526	 36.184240	 0.754587	-1.378229	 35.397820	-2.634230	 1.377410	 2.261278	-5.106574	 0.619598	-9.511312	 4.664068	 89.782090	 78.203830	-180.000000	-34.945850	 73.651450	 32.055080	 0.182748	-6.499610	 19.124890	-14.885760	-3.299066	 9.525960	 6.437017	 35.671460	-0.771858	 2.830251	 35.756010	-7.813440	-2.350882	 35.473990	 5.254307
 6.559647	 3.288447	 0.011437	 163.943500	-2.150229	-1.269138	 8.457980	 28.230270	-179.927300	-1.676045	-11.574800	 1.876650	 5.890044	 79.701780	-0.319266	-2.152743	 49.264510	-0.559186	 4.709026	-34.158720	-177.874800	 1.743002	-39.939030	 4.993533	 23.158380	 89.491780	-16.777300	 2.378459	 29.698610	 0.028587	-2.670424	 2.963589	 1.818858	-3.343753	-1.669515	 0.070112	-3.295596	-3.752035	-1.114357	-91.776180	 78.527400	-180.000000	 39.770580	 62.423040	-56.126970	-9.092476	-4.856584	-35.066880	 3.798391	-2.097887	-5.368485	-3.812334	 37.924440	-2.927599	-2.450526	 36.184240	 0.754587	-1.378229	 35.397820	-2.634230	 1.458026	 2.465707	-5.131077	 0.684469	-9.596825	 4.835569	 89.782120	 78.203930	 180.000000	-34.258200	 73.838300	 31.214000	 0.119646	-6.433666	 18.634330	-15.111950	-3.306853	 9.519096	 6.437017	 35.671460	-0.771858	 2.830251	 35.756010	-7.813440	-2.350882	 35.473990	 5.254307
 6.571803	 3.317829	 0.010645	 164.285500	-2.208882	-1.215512	 8.737514	 29.381530	 179.234700	-1.265885	-11.565330	 1.934851	 5.867104	 77.556270	 0.143942	-2.126254	 50.481040	-0.603181	 4.414382	-33.408470	-178.273100	 2.715832	-41.118600	 5.661017	 9.532063	 88.945750	-2.680924	 2.380894	 29.204030	 0.017735	-2.804306	 2.833223	 1.741845	-3.414559	-1.679409	-0.048975	-3.214356	-3.625762	-1.189813	-91.776180	 78.527380	-180.000000	 40.593590	 63.024690	-56.042510	-8.995721	-4.818473	-34.170940	 3.884291	-2.103286	-5.367362	-3.812334	 37.924440	-2.927599	-2.450526	 36.184240	 0.754587	-1.378229	 35.397820	-2.634230	 1.528619	 2.668945	-5.125305	 0.735988	-9.635830	 4.935531	 89.782120	 78.203930	 180.000000	-33.498660	 73.981040	 30.247140	 0.083217	-6.376932	 18.259280	-15.274750	-3.312353	 9.514224	 6.437017	 35.671460	-0.771858	 2.830251	 35.756010	-7.813440	-2.350882	 35.473990	 5.254307
 6.584178	 3.348158	 0.010442	 164.702600	-2.257060	-1.133427	 9.051485	 30.514500	 178.325100	-0.944182	-11.559390	 1.970969	 5.626759	 74.763860	 0.782351	-2.107897	 51.270610	-0.632819	 3.921386	-32.598250	-178.627800	 3.674693	-42.340510	 6.229293	 4.293445	 88.059320	 2.858266	 2.383602	 28.624840	 0.005112	-2.955850	 2.710634	 1.587876	-3.492536	-1.686726	-0.157243	-3.137492	-3.523418	-1.269937	-91.776180	 78.527400	-180.000000	 41.473350	 63.703990	-55.898640	-8.818876	-4.805978	-33.039440	 4.065535	-2.111563	-5.365549	-3.812334	 37.924440	-2.927599	-2.450526	 36.184240	 0.754587	-1.378229	 35.397820	-2.634230	 1.588123	 2.862392	-5.093597	 0.776982	-9.629954	 4.984213	 89.782120	 78.203930	 180.000000	-32.727260	 74.092750	 29.249820	 0.104777	-6.313877	 17.963900	-15.354020	-3.316659	 9.510858	 6.437017	 35.671460	-0.771858	 2.830251	 35.756010	-7.813440	-2.350882	 35.473990	 5.254307
